<svg xmlns="http://www.w3.org/2000/svg" width="16" height="16" fill="none">
  <path fill="#BEA69E" d="M10.58 9.08A2.583 2.583 0 0 1 8 11.66a2.583 2.583 0 0 1-2.58-2.58A2.583 2.583 0 0 1 8 6.5a2.584 2.584 0 0 1 2.58 2.58ZM16 5.416v7.329a1.77 1.77 0 0 1-1.77 1.769H1.77A1.77 1.77 0 0 1 0 12.744V5.417c0-.977.792-1.77 1.77-1.77h2.175v-.612c0-.855.693-1.548 1.548-1.548h5.014c.855 0 1.548.693 1.548 1.548v.612h2.176c.977 0 1.769.793 1.769 1.77ZM11.907 9.08A3.912 3.912 0 0 0 8 5.172 3.912 3.912 0 0 0 4.093 9.08 3.912 3.912 0 0 0 8 12.987a3.912 3.912 0 0 0 3.907-3.907Z"/>
</svg>
